# xmcd
#
# Track frame offsets:
#	150
#	21858
#	45342
#	61298
#	85374
#	106503
#	125307
#	143007
#	164692
#	181074
#	204982
#	220094
#	239969
#	271253
#
# Disc length: 3853 seconds
#
# Revision: 2
# Processed by: cddbd v1.5.2PL0 Copyright (c) Steve Scherf et al.
# Submitted via: audiograbber 1.83.01
#
DISCID=bd0f0b0e
DTITLE=Joy Fleming - .... My Music, My Soul, My Blues...
DYEAR=2009
DGENRE=Blues
TTITLE0=Kiss of Life
TTITLE1=Ain't No Love To Be Found
TTITLE2=All In Love Is Fair
TTITLE3=The Meaning of Love
TTITLE4=Here We are
TTITLE5=Imagine
TTITLE6=Still
TTITLE7=Obsession Blues
TTITLE8=Keep On Running
TTITLE9=Superstition
TTITLE10=Fever
TTITLE11=Neckarbrücken Blues
TTITLE12=Still Got The Blues
TTITLE13=Build Up On It
EXTD=
EXTT0=
EXTT1=
EXTT2=
EXTT3=
EXTT4=
EXTT5=
EXTT6=
EXTT7=
EXTT8=
EXTT9=
EXTT10=
EXTT11=
EXTT12=
EXTT13=
PLAYORDER=
